# xmcd
#
# Track frame offsets:
# 150
# 13235
# 30682
# 45787
# 60760
# 75562
# 86842
# 98862
# 111420
# 132715
#
# Disc length: 1942 seconds
#
#
# Revision: 0
# Processed by: cddbd v1.5.1PL0 Copyright (c) Steve Scherf et al.
# Submitted via: FreeRIP 2.53 
#
DISCID=7907940a
DTITLE=Jimmy Reed - Funky Funky Soul
DYEAR=2002
DGENRE=
TTITLE0=Hard Working Hanna (Part One)
TTITLE1=Cry Brfore I Go
TTITLE2=I Can't Stand To Leave
TTITLE3=Big Legged Woman
TTITLE4=Funky Funky Soul
TTITLE5=Christmas Present Blues
TTITLE6=Over The Hump
TTITLE7=Crying Blind
TTITLE8=Jumpin' Jimmy
TTITLE9=Good Is Catching Up With Me
EXTD=
EXTT0=
EXTT1=
EXTT2=
EXTT3=
EXTT4=
EXTT5=
EXTT6=
EXTT7=
EXTT8=
EXTT9=
PLAYORDER=
